<svg xmlns="http://www.w3.org/2000/svg" version="1.1" xmlns:xlink="http://www.w3.org/1999/xlink" xmlns:svgjs="http://svgjs.com/svgjs" width="1920" height="1280" preserveAspectRatio="none" viewBox="0 0 1920 1280"><g mask="url(&quot;#SvgjsMask1947&quot;)" fill="none"><rect width="1920" height="1280" x="0" y="0" fill="url(#SvgjsLinearGradient1948)"></rect><path d="M59.5 64.67L106.26 91.67L106.26 145.67L59.5 172.67L12.73 145.67L12.73 91.67zM59.5 226.67L106.26 253.67L106.26 307.67L59.5 334.67L12.73 307.67L12.73 253.67zM12.73 307.67L59.5 334.67L59.5 388.67L12.73 415.67L-34.04 388.67L-34.04 334.67zM59.5 712.67L106.26 739.67L106.26 793.67L59.5 820.67L12.73 793.67L12.73 739.67zM12.73 1279.67L59.5 1306.67L59.5 1360.67L12.73 1387.67L-34.04 1360.67L-34.04 1306.67zM153.03 64.67L199.8 91.67L199.8 145.67L153.03 172.67L106.26 145.67L106.26 91.67zM153.03 226.67L199.8 253.67L199.8 307.67L153.03 334.67L106.26 307.67L106.26 253.67zM153.03 388.67L199.8 415.67L199.8 469.67L153.03 496.67L106.26 469.67L106.26 415.67zM153.03 550.67L199.8 577.67L199.8 631.67L153.03 658.67L106.26 631.67L106.26 577.67zM153.03 1198.67L199.8 1225.67L199.8 1279.67L153.03 1306.67L106.26 1279.67L106.26 1225.67zM246.56 712.67L293.33 739.67L293.33 793.67L246.56 820.67L199.8 793.67L199.8 739.67zM246.56 1036.67L293.33 1063.67L293.33 1117.67L246.56 1144.67L199.8 1117.67L199.8 1063.67zM246.56 1198.67L293.33 1225.67L293.33 1279.67L246.56 1306.67L199.8 1279.67L199.8 1225.67zM293.33 -16.33L340.1 10.67L340.1 64.67L293.33 91.67L246.56 64.67L246.56 10.67zM340.1 874.67L386.86 901.67L386.86 955.67L340.1 982.67L293.33 955.67L293.33 901.67zM386.86 -16.33L433.63 10.67L433.63 64.67L386.86 91.67L340.1 64.67L340.1 10.67zM433.63 874.67L480.4 901.67L480.4 955.67L433.63 982.67L386.86 955.67L386.86 901.67zM527.16 226.67L573.93 253.67L573.93 307.67L527.16 334.67L480.4 307.67L480.4 253.67zM480.4 307.67L527.16 334.67L527.16 388.67L480.4 415.67L433.63 388.67L433.63 334.67zM480.4 955.67L527.16 982.67L527.16 1036.67L480.4 1063.67L433.63 1036.67L433.63 982.67zM667.46 -16.33L714.23 10.67L714.23 64.67L667.46 91.67L620.7 64.67L620.7 10.67zM714.23 64.67L761 91.67L761 145.67L714.23 172.67L667.46 145.67L667.46 91.67zM714.23 388.67L761 415.67L761 469.67L714.23 496.67L667.46 469.67L667.46 415.67zM667.46 793.67L714.23 820.67L714.23 874.67L667.46 901.67L620.7 874.67L620.7 820.67zM714.23 1036.67L761 1063.67L761 1117.67L714.23 1144.67L667.46 1117.67L667.46 1063.67zM667.46 1117.67L714.23 1144.67L714.23 1198.67L667.46 1225.67L620.7 1198.67L620.7 1144.67zM807.76 388.67L854.53 415.67L854.53 469.67L807.76 496.67L761 469.67L761 415.67zM807.76 712.67L854.53 739.67L854.53 793.67L807.76 820.67L761 793.67L761 739.67zM761 793.67L807.76 820.67L807.76 874.67L761 901.67L714.23 874.67L714.23 820.67zM807.76 1198.67L854.53 1225.67L854.53 1279.67L807.76 1306.67L761 1279.67L761 1225.67zM901.3 64.67L948.06 91.67L948.06 145.67L901.3 172.67L854.53 145.67L854.53 91.67zM854.53 469.67L901.3 496.67L901.3 550.67L854.53 577.67L807.76 550.67L807.76 496.67zM901.3 550.67L948.06 577.67L948.06 631.67L901.3 658.67L854.53 631.67L854.53 577.67zM854.53 793.67L901.3 820.67L901.3 874.67L854.53 901.67L807.76 874.67L807.76 820.67zM948.06 307.67L994.83 334.67L994.83 388.67L948.06 415.67L901.3 388.67L901.3 334.67zM948.06 469.67L994.83 496.67L994.83 550.67L948.06 577.67L901.3 550.67L901.3 496.67zM994.83 712.67L1041.6 739.67L1041.6 793.67L994.83 820.67L948.06 793.67L948.06 739.67zM994.83 1036.67L1041.6 1063.67L1041.6 1117.67L994.83 1144.67L948.06 1117.67L948.06 1063.67zM1088.36 712.67L1135.13 739.67L1135.13 793.67L1088.36 820.67L1041.6 793.67L1041.6 739.67zM1041.6 955.67L1088.36 982.67L1088.36 1036.67L1041.6 1063.67L994.83 1036.67L994.83 982.67zM1088.36 1036.67L1135.13 1063.67L1135.13 1117.67L1088.36 1144.67L1041.6 1117.67L1041.6 1063.67zM1135.13 -16.33L1181.9 10.67L1181.9 64.67L1135.13 91.67L1088.36 64.67L1088.36 10.67zM1135.13 307.67L1181.9 334.67L1181.9 388.67L1135.13 415.67L1088.36 388.67L1088.36 334.67zM1135.13 955.67L1181.9 982.67L1181.9 1036.67L1135.13 1063.67L1088.36 1036.67L1088.36 982.67zM1275.43 388.67L1322.2 415.67L1322.2 469.67L1275.43 496.67L1228.66 469.67L1228.66 415.67zM1228.66 793.67L1275.43 820.67L1275.43 874.67L1228.66 901.67L1181.9 874.67L1181.9 820.67zM1228.66 955.67L1275.43 982.67L1275.43 1036.67L1228.66 1063.67L1181.9 1036.67L1181.9 982.67zM1322.2 469.67L1368.96 496.67L1368.96 550.67L1322.2 577.67L1275.43 550.67L1275.43 496.67zM1368.96 874.67L1415.73 901.67L1415.73 955.67L1368.96 982.67L1322.2 955.67L1322.2 901.67zM1322.2 1117.67L1368.96 1144.67L1368.96 1198.67L1322.2 1225.67L1275.43 1198.67L1275.43 1144.67zM1368.96 1198.67L1415.73 1225.67L1415.73 1279.67L1368.96 1306.67L1322.2 1279.67L1322.2 1225.67zM1415.73 -16.33L1462.5 10.67L1462.5 64.67L1415.73 91.67L1368.96 64.67L1368.96 10.67zM1415.73 145.67L1462.5 172.67L1462.5 226.67L1415.73 253.67L1368.96 226.67L1368.96 172.67zM1462.5 226.67L1509.26 253.67L1509.26 307.67L1462.5 334.67L1415.73 307.67L1415.73 253.67zM1415.73 469.67L1462.5 496.67L1462.5 550.67L1415.73 577.67L1368.96 550.67L1368.96 496.67zM1415.73 631.67L1462.5 658.67L1462.5 712.67L1415.73 739.67L1368.96 712.67L1368.96 658.67zM1415.73 793.67L1462.5 820.67L1462.5 874.67L1415.73 901.67L1368.96 874.67L1368.96 820.67zM1462.5 874.67L1509.26 901.67L1509.26 955.67L1462.5 982.67L1415.73 955.67L1415.73 901.67zM1415.73 1279.67L1462.5 1306.67L1462.5 1360.67L1415.73 1387.67L1368.96 1360.67L1368.96 1306.67zM1556.03 64.67L1602.8 91.67L1602.8 145.67L1556.03 172.67L1509.26 145.67L1509.26 91.67zM1556.03 712.67L1602.8 739.67L1602.8 793.67L1556.03 820.67L1509.26 793.67L1509.26 739.67zM1556.03 874.67L1602.8 901.67L1602.8 955.67L1556.03 982.67L1509.26 955.67L1509.26 901.67zM1649.56 64.67L1696.33 91.67L1696.33 145.67L1649.56 172.67L1602.8 145.67L1602.8 91.67zM1602.8 631.67L1649.56 658.67L1649.56 712.67L1602.8 739.67L1556.03 712.67L1556.03 658.67zM1696.33 307.67L1743.1 334.67L1743.1 388.67L1696.33 415.67L1649.56 388.67L1649.56 334.67zM1743.1 388.67L1789.86 415.67L1789.86 469.67L1743.1 496.67L1696.33 469.67L1696.33 415.67zM1789.86 469.67L1836.63 496.67L1836.63 550.67L1789.86 577.67L1743.1 550.67L1743.1 496.67zM1789.86 793.67L1836.63 820.67L1836.63 874.67L1789.86 901.67L1743.1 874.67L1743.1 820.67zM1930.16 226.67L1976.93 253.67L1976.93 307.67L1930.16 334.67L1883.4 307.67L1883.4 253.67zM1883.4 469.67L1930.16 496.67L1930.16 550.67L1883.4 577.67L1836.63 550.67L1836.63 496.67zM1883.4 955.67L1930.16 982.67L1930.16 1036.67L1883.4 1063.67L1836.63 1036.67L1836.63 982.67zM1883.4 1117.67L1930.16 1144.67L1930.16 1198.67L1883.4 1225.67L1836.63 1198.67L1836.63 1144.67z" stroke="url(#SvgjsLinearGradient1949)" stroke-width="2"></path><path d="M85.7 -62.44L228.6 20.06L228.6 185.06L85.7 267.56L-57.2 185.06L-57.2 20.06zM228.6 185.06L371.5 267.56L371.5 432.56L228.6 515.06L85.7 432.56L85.7 267.56zM228.6 1175.06L371.5 1257.56L371.5 1422.56L228.6 1505.06L85.7 1422.56L85.7 1257.56zM514.39 680.06L657.29 762.56L657.29 927.56L514.39 1010.06L371.5 927.56L371.5 762.56zM800.19 185.06L943.09 267.56L943.09 432.56L800.19 515.06L657.29 432.56L657.29 267.56zM657.29 432.56L800.19 515.06L800.19 680.06L657.29 762.56L514.39 680.06L514.39 515.06zM800.19 680.06L943.09 762.56L943.09 927.56L800.19 1010.06L657.29 927.56L657.29 762.56zM657.29 927.56L800.19 1010.06L800.19 1175.06L657.29 1257.56L514.39 1175.06L514.39 1010.06zM800.19 1175.06L943.09 1257.56L943.09 1422.56L800.19 1505.06L657.29 1422.56L657.29 1257.56zM943.09 432.56L1085.99 515.06L1085.99 680.06L943.09 762.56L800.19 680.06L800.19 515.06zM1085.99 680.06L1228.89 762.56L1228.89 927.56L1085.99 1010.06L943.09 927.56L943.09 762.56zM1085.99 1175.06L1228.89 1257.56L1228.89 1422.56L1085.99 1505.06L943.09 1422.56L943.09 1257.56zM1228.89 432.56L1371.78 515.06L1371.78 680.06L1228.89 762.56L1085.99 680.06L1085.99 515.06zM1514.68 -62.44L1657.58 20.06L1657.58 185.06L1514.68 267.56L1371.78 185.06L1371.78 20.06zM1514.68 432.56L1657.58 515.06L1657.58 680.06L1514.68 762.56L1371.78 680.06L1371.78 515.06zM1514.68 927.56L1657.58 1010.06L1657.58 1175.06L1514.68 1257.56L1371.78 1175.06L1371.78 1010.06zM1657.58 1175.06L1800.48 1257.56L1800.48 1422.56L1657.58 1505.06L1514.68 1422.56L1514.68 1257.56zM1800.48 432.56L1943.38 515.06L1943.38 680.06L1800.48 762.56L1657.58 680.06L1657.58 515.06zM1943.38 680.06L2086.28 762.56L2086.28 927.56L1943.38 1010.06L1800.48 927.56L1800.48 762.56zM1800.48 927.56L1943.38 1010.06L1943.38 1175.06L1800.48 1257.56L1657.58 1175.06L1657.58 1010.06zM1943.38 1175.06L2086.28 1257.56L2086.28 1422.56L1943.38 1505.06L1800.48 1422.56L1800.48 1257.56z" stroke="rgba(34, 45, 50, 1)" stroke-width="2"></path><path d="M69.2 -62.44 a16.5 16.5 0 1 0 33 0 a16.5 16.5 0 1 0 -33 0zM212.1 20.06 a16.5 16.5 0 1 0 33 0 a16.5 16.5 0 1 0 -33 0zM212.1 185.06 a16.5 16.5 0 1 0 33 0 a16.5 16.5 0 1 0 -33 0zM69.2 267.56 a16.5 16.5 0 1 0 33 0 a16.5 16.5 0 1 0 -33 0zM-73.7 185.06 a16.5 16.5 0 1 0 33 0 a16.5 16.5 0 1 0 -33 0zM-73.7 20.06 a16.5 16.5 0 1 0 33 0 a16.5 16.5 0 1 0 -33 0zM355 267.56 a16.5 16.5 0 1 0 33 0 a16.5 16.5 0 1 0 -33 0zM355 432.56 a16.5 16.5 0 1 0 33 0 a16.5 16.5 0 1 0 -33 0zM212.1 515.06 a16.5 16.5 0 1 0 33 0 a16.5 16.5 0 1 0 -33 0zM69.2 432.56 a16.5 16.5 0 1 0 33 0 a16.5 16.5 0 1 0 -33 0zM212.1 1175.06 a16.5 16.5 0 1 0 33 0 a16.5 16.5 0 1 0 -33 0zM355 1257.56 a16.5 16.5 0 1 0 33 0 a16.5 16.5 0 1 0 -33 0zM355 1422.56 a16.5 16.5 0 1 0 33 0 a16.5 16.5 0 1 0 -33 0zM212.1 1505.06 a16.5 16.5 0 1 0 33 0 a16.5 16.5 0 1 0 -33 0zM69.2 1422.56 a16.5 16.5 0 1 0 33 0 a16.5 16.5 0 1 0 -33 0zM69.2 1257.56 a16.5 16.5 0 1 0 33 0 a16.5 16.5 0 1 0 -33 0zM497.89 680.06 a16.5 16.5 0 1 0 33 0 a16.5 16.5 0 1 0 -33 0zM640.79 762.56 a16.5 16.5 0 1 0 33 0 a16.5 16.5 0 1 0 -33 0zM640.79 927.56 a16.5 16.5 0 1 0 33 0 a16.5 16.5 0 1 0 -33 0zM497.89 1010.06 a16.5 16.5 0 1 0 33 0 a16.5 16.5 0 1 0 -33 0zM355 927.56 a16.5 16.5 0 1 0 33 0 a16.5 16.5 0 1 0 -33 0zM355 762.56 a16.5 16.5 0 1 0 33 0 a16.5 16.5 0 1 0 -33 0zM783.69 185.06 a16.5 16.5 0 1 0 33 0 a16.5 16.5 0 1 0 -33 0zM926.59 267.56 a16.5 16.5 0 1 0 33 0 a16.5 16.5 0 1 0 -33 0zM926.59 432.56 a16.5 16.5 0 1 0 33 0 a16.5 16.5 0 1 0 -33 0zM783.69 515.06 a16.5 16.5 0 1 0 33 0 a16.5 16.5 0 1 0 -33 0zM640.79 432.56 a16.5 16.5 0 1 0 33 0 a16.5 16.5 0 1 0 -33 0zM640.79 267.56 a16.5 16.5 0 1 0 33 0 a16.5 16.5 0 1 0 -33 0zM783.69 680.06 a16.5 16.5 0 1 0 33 0 a16.5 16.5 0 1 0 -33 0zM497.89 515.06 a16.5 16.5 0 1 0 33 0 a16.5 16.5 0 1 0 -33 0zM926.59 762.56 a16.5 16.5 0 1 0 33 0 a16.5 16.5 0 1 0 -33 0zM926.59 927.56 a16.5 16.5 0 1 0 33 0 a16.5 16.5 0 1 0 -33 0zM783.69 1010.06 a16.5 16.5 0 1 0 33 0 a16.5 16.5 0 1 0 -33 0zM783.69 1175.06 a16.5 16.5 0 1 0 33 0 a16.5 16.5 0 1 0 -33 0zM640.79 1257.56 a16.5 16.5 0 1 0 33 0 a16.5 16.5 0 1 0 -33 0zM497.89 1175.06 a16.5 16.5 0 1 0 33 0 a16.5 16.5 0 1 0 -33 0zM926.59 1257.56 a16.5 16.5 0 1 0 33 0 a16.5 16.5 0 1 0 -33 0zM926.59 1422.56 a16.5 16.5 0 1 0 33 0 a16.5 16.5 0 1 0 -33 0zM783.69 1505.06 a16.5 16.5 0 1 0 33 0 a16.5 16.5 0 1 0 -33 0zM640.79 1422.56 a16.5 16.5 0 1 0 33 0 a16.5 16.5 0 1 0 -33 0zM1069.49 515.06 a16.5 16.5 0 1 0 33 0 a16.5 16.5 0 1 0 -33 0zM1069.49 680.06 a16.5 16.5 0 1 0 33 0 a16.5 16.5 0 1 0 -33 0zM1212.39 762.56 a16.5 16.5 0 1 0 33 0 a16.5 16.5 0 1 0 -33 0zM1212.39 927.56 a16.5 16.5 0 1 0 33 0 a16.5 16.5 0 1 0 -33 0zM1069.49 1010.06 a16.5 16.5 0 1 0 33 0 a16.5 16.5 0 1 0 -33 0zM1069.49 1175.06 a16.5 16.5 0 1 0 33 0 a16.5 16.5 0 1 0 -33 0zM1212.39 1257.56 a16.5 16.5 0 1 0 33 0 a16.5 16.5 0 1 0 -33 0zM1212.39 1422.56 a16.5 16.5 0 1 0 33 0 a16.5 16.5 0 1 0 -33 0zM1069.49 1505.06 a16.5 16.5 0 1 0 33 0 a16.5 16.5 0 1 0 -33 0zM1212.39 432.56 a16.5 16.5 0 1 0 33 0 a16.5 16.5 0 1 0 -33 0zM1355.28 515.06 a16.5 16.5 0 1 0 33 0 a16.5 16.5 0 1 0 -33 0zM1355.28 680.06 a16.5 16.5 0 1 0 33 0 a16.5 16.5 0 1 0 -33 0zM1498.18 -62.44 a16.5 16.5 0 1 0 33 0 a16.5 16.5 0 1 0 -33 0zM1641.08 20.06 a16.5 16.5 0 1 0 33 0 a16.5 16.5 0 1 0 -33 0zM1641.08 185.06 a16.5 16.5 0 1 0 33 0 a16.5 16.5 0 1 0 -33 0zM1498.18 267.56 a16.5 16.5 0 1 0 33 0 a16.5 16.5 0 1 0 -33 0zM1355.28 185.06 a16.5 16.5 0 1 0 33 0 a16.5 16.5 0 1 0 -33 0zM1355.28 20.06 a16.5 16.5 0 1 0 33 0 a16.5 16.5 0 1 0 -33 0zM1498.18 432.56 a16.5 16.5 0 1 0 33 0 a16.5 16.5 0 1 0 -33 0zM1641.08 515.06 a16.5 16.5 0 1 0 33 0 a16.5 16.5 0 1 0 -33 0zM1641.08 680.06 a16.5 16.5 0 1 0 33 0 a16.5 16.5 0 1 0 -33 0zM1498.18 762.56 a16.5 16.5 0 1 0 33 0 a16.5 16.5 0 1 0 -33 0zM1498.18 927.56 a16.5 16.5 0 1 0 33 0 a16.5 16.5 0 1 0 -33 0zM1641.08 1010.06 a16.5 16.5 0 1 0 33 0 a16.5 16.5 0 1 0 -33 0zM1641.08 1175.06 a16.5 16.5 0 1 0 33 0 a16.5 16.5 0 1 0 -33 0zM1498.18 1257.56 a16.5 16.5 0 1 0 33 0 a16.5 16.5 0 1 0 -33 0zM1355.28 1175.06 a16.5 16.5 0 1 0 33 0 a16.5 16.5 0 1 0 -33 0zM1355.28 1010.06 a16.5 16.5 0 1 0 33 0 a16.5 16.5 0 1 0 -33 0zM1783.98 1257.56 a16.5 16.5 0 1 0 33 0 a16.5 16.5 0 1 0 -33 0zM1783.98 1422.56 a16.5 16.5 0 1 0 33 0 a16.5 16.5 0 1 0 -33 0zM1641.08 1505.06 a16.5 16.5 0 1 0 33 0 a16.5 16.5 0 1 0 -33 0zM1498.18 1422.56 a16.5 16.5 0 1 0 33 0 a16.5 16.5 0 1 0 -33 0zM1783.98 432.56 a16.5 16.5 0 1 0 33 0 a16.5 16.5 0 1 0 -33 0zM1926.88 515.06 a16.5 16.5 0 1 0 33 0 a16.5 16.5 0 1 0 -33 0zM1926.88 680.06 a16.5 16.5 0 1 0 33 0 a16.5 16.5 0 1 0 -33 0zM1783.98 762.56 a16.5 16.5 0 1 0 33 0 a16.5 16.5 0 1 0 -33 0zM2069.78 762.56 a16.5 16.5 0 1 0 33 0 a16.5 16.5 0 1 0 -33 0zM2069.78 927.56 a16.5 16.5 0 1 0 33 0 a16.5 16.5 0 1 0 -33 0zM1926.88 1010.06 a16.5 16.5 0 1 0 33 0 a16.5 16.5 0 1 0 -33 0zM1783.98 927.56 a16.5 16.5 0 1 0 33 0 a16.5 16.5 0 1 0 -33 0zM1926.88 1175.06 a16.5 16.5 0 1 0 33 0 a16.5 16.5 0 1 0 -33 0zM2069.78 1257.56 a16.5 16.5 0 1 0 33 0 a16.5 16.5 0 1 0 -33 0zM2069.78 1422.56 a16.5 16.5 0 1 0 33 0 a16.5 16.5 0 1 0 -33 0zM1926.88 1505.06 a16.5 16.5 0 1 0 33 0 a16.5 16.5 0 1 0 -33 0z" fill="rgba(34, 45, 50, 1)"></path><path d="M74.04 -37.52L143.32 2.48L143.32 82.48L74.04 122.48L4.76 82.48L4.76 2.48zM143.32 82.48L212.61 122.48L212.61 202.48L143.32 242.48L74.04 202.48L74.04 122.48zM143.32 322.48L212.61 362.48L212.61 442.48L143.32 482.48L74.04 442.48L74.04 362.48zM143.32 562.48L212.61 602.48L212.61 682.48L143.32 722.48L74.04 682.48L74.04 602.48zM143.32 802.48L212.61 842.48L212.61 922.48L143.32 962.48L74.04 922.48L74.04 842.48zM74.04 922.48L143.32 962.48L143.32 1042.48L74.04 1082.48L4.76 1042.48L4.76 962.48zM143.32 1282.48L212.61 1322.48L212.61 1402.48L143.32 1442.48L74.04 1402.48L74.04 1322.48zM212.61 -37.52L281.89 2.48L281.89 82.48L212.61 122.48L143.32 82.48L143.32 2.48zM212.61 202.48L281.89 242.48L281.89 322.48L212.61 362.48L143.32 322.48L143.32 242.48zM212.61 442.48L281.89 482.48L281.89 562.48L212.61 602.48L143.32 562.48L143.32 482.48zM281.89 1042.48L351.18 1082.48L351.18 1162.48L281.89 1202.48L212.61 1162.48L212.61 1082.48zM420.46 562.48L489.74 602.48L489.74 682.48L420.46 722.48L351.18 682.48L351.18 602.48zM420.46 1042.48L489.74 1082.48L489.74 1162.48L420.46 1202.48L351.18 1162.48L351.18 1082.48zM489.74 202.48L559.03 242.48L559.03 322.48L489.74 362.48L420.46 322.48L420.46 242.48zM559.03 562.48L628.31 602.48L628.31 682.48L559.03 722.48L489.74 682.48L489.74 602.48zM559.03 1282.48L628.31 1322.48L628.31 1402.48L559.03 1442.48L489.74 1402.48L489.74 1322.48zM628.31 1162.48L697.6 1202.48L697.6 1282.48L628.31 1322.48L559.03 1282.48L559.03 1202.48zM766.88 202.48L836.16 242.48L836.16 322.48L766.88 362.48L697.6 322.48L697.6 242.48zM766.88 442.48L836.16 482.48L836.16 562.48L766.88 602.48L697.6 562.48L697.6 482.48zM905.45 -37.52L974.73 2.48L974.73 82.48L905.45 122.48L836.16 82.48L836.16 2.48zM974.73 1042.48L1044.02 1082.48L1044.02 1162.48L974.73 1202.48L905.45 1162.48L905.45 1082.48zM905.45 1162.48L974.73 1202.48L974.73 1282.48L905.45 1322.48L836.16 1282.48L836.16 1202.48zM1113.3 82.48L1182.58 122.48L1182.58 202.48L1113.3 242.48L1044.02 202.48L1044.02 122.48zM1182.58 -37.52L1251.87 2.48L1251.87 82.48L1182.58 122.48L1113.3 82.48L1113.3 2.48zM1251.87 82.48L1321.15 122.48L1321.15 202.48L1251.87 242.48L1182.58 202.48L1182.58 122.48zM1251.87 562.48L1321.15 602.48L1321.15 682.48L1251.87 722.48L1182.58 682.48L1182.58 602.48zM1182.58 682.48L1251.87 722.48L1251.87 802.48L1182.58 842.48L1113.3 802.48L1113.3 722.48zM1251.87 802.48L1321.15 842.48L1321.15 922.48L1251.87 962.48L1182.58 922.48L1182.58 842.48zM1182.58 922.48L1251.87 962.48L1251.87 1042.48L1182.58 1082.48L1113.3 1042.48L1113.3 962.48zM1251.87 1042.48L1321.15 1082.48L1321.15 1162.48L1251.87 1202.48L1182.58 1162.48L1182.58 1082.48zM1251.87 1282.48L1321.15 1322.48L1321.15 1402.48L1251.87 1442.48L1182.58 1402.48L1182.58 1322.48zM1321.15 202.48L1390.44 242.48L1390.44 322.48L1321.15 362.48L1251.87 322.48L1251.87 242.48zM1390.44 322.48L1459.72 362.48L1459.72 442.48L1390.44 482.48L1321.15 442.48L1321.15 362.48zM1321.15 1162.48L1390.44 1202.48L1390.44 1282.48L1321.15 1322.48L1251.87 1282.48L1251.87 1202.48zM1529 322.48L1598.29 362.48L1598.29 442.48L1529 482.48L1459.72 442.48L1459.72 362.48zM1529 562.48L1598.29 602.48L1598.29 682.48L1529 722.48L1459.72 682.48L1459.72 602.48zM1529 802.48L1598.29 842.48L1598.29 922.48L1529 962.48L1459.72 922.48L1459.72 842.48zM1598.29 202.48L1667.57 242.48L1667.57 322.48L1598.29 362.48L1529 322.48L1529 242.48zM1667.57 322.48L1736.86 362.48L1736.86 442.48L1667.57 482.48L1598.29 442.48L1598.29 362.48zM1598.29 922.48L1667.57 962.48L1667.57 1042.48L1598.29 1082.48L1529 1042.48L1529 962.48zM1736.86 442.48L1806.14 482.48L1806.14 562.48L1736.86 602.48L1667.57 562.48L1667.57 482.48zM1806.14 562.48L1875.42 602.48L1875.42 682.48L1806.14 722.48L1736.86 682.48L1736.86 602.48zM1806.14 802.48L1875.42 842.48L1875.42 922.48L1806.14 962.48L1736.86 922.48L1736.86 842.48zM1875.42 202.48L1944.71 242.48L1944.71 322.48L1875.42 362.48L1806.14 322.48L1806.14 242.48zM1944.71 802.48L2013.99 842.48L2013.99 922.48L1944.71 962.48L1875.42 922.48L1875.42 842.48zM1875.42 922.48L1944.71 962.48L1944.71 1042.48L1875.42 1082.48L1806.14 1042.48L1806.14 962.48zM1875.42 1162.48L1944.71 1202.48L1944.71 1282.48L1875.42 1322.48L1806.14 1282.48L1806.14 1202.48z" stroke="rgba(51, 51, 51, 1)" stroke-width="2"></path></g><defs><mask id="SvgjsMask1947"><rect width="1920" height="1280" fill="#ffffff"></rect></mask><linearGradient x1="8.33%" y1="-12.5%" x2="91.67%" y2="112.5%" gradientUnits="userSpaceOnUse" id="SvgjsLinearGradient1948"><stop stop-color="rgba(62, 65, 66, 1)" offset="0.33"></stop><stop stop-color="rgba(34, 45, 50, 1)" offset="0.84"></stop></linearGradient><linearGradient x1="159.936" y1="-160" x2="1760.064" y2="1440" gradientUnits="userSpaceOnUse" id="SvgjsLinearGradient1949"><stop stop-color="rgba(34, 45, 50, 1)" offset="0"></stop><stop stop-color="rgba(62, 65, 66, 1)" offset="1"></stop></linearGradient></defs></svg>